<?xml version="1.0" encoding="utf-8"?>
<!-- Generator: Adobe Illustrator 18.1.1, SVG Export Plug-In . SVG Version: 6.00 Build 0)  -->
<svg version="1.1" id="Layer_1" xmlns="http://www.w3.org/2000/svg" xmlns:xlink="http://www.w3.org/1999/xlink" x="0px" y="0px"
	 viewBox="0 0 411.6 193.5" enable-background="new 0 0 411.6 193.5" xml:space="preserve">
<g>
	<path fill="#FFFFFF" d="M35,104.5c0,2.5-0.9,4.5-2.7,5.9c-1.8,1.5-4.1,2.2-7.1,2.2c-2.7,0-5-0.6-7-1.8l1.5-2.3
		c2.2,1.6,4.2,2.3,6.1,2.3c1.9,0,3.4-0.5,4.5-1.4c1-0.9,1.4-2,1.4-3.3c0-2.5-1.3-4.6-3.8-6.3L23.7,97c-3.2-2.1-4.7-4.7-4.7-7.8
		c0-2.2,0.8-3.9,2.4-5.3c1.7-1.5,4-2.2,6.9-2.2c1.9,0,3.8,0.3,5.7,1l-1.3,2.3c-0.1-0.2-0.5-0.5-1.1-0.8c-1.1-0.6-2.5-0.8-4-0.8
		c-1.7,0-3.1,0.5-4.1,1.5c-0.9,0.9-1.3,1.9-1.3,3.1c0,2.1,1.2,4,3.7,5.6l3.5,2.3C33.1,98.2,35,101.1,35,104.5z"/>
	<path fill="#FFFFFF" d="M52.1,101.5v-7.7c0-3.4,0-6.7-0.1-9.7c-4.6,0-7.8,0.2-9.7,0.6v-2.3c2.1,0,5.9,0,11.5,0c5.8,0,9.7,0,11.8,0
		c0,0.8,0,1.5,0,2.3c-1.4-0.4-4.7-0.6-10-0.6c-0.1,3.1-0.1,6.3-0.1,9.7v7.7c0,1.9,0.1,5.4,0.2,10.5h-4
		C51.9,106.8,52.1,103.3,52.1,101.5z"/>
	<path fill="#FFFFFF" d="M95.8,98.8v-5.2c0-6.5-0.2-10.3-0.5-11.3h2.4c0,0.4,0,2.2,0,5.3c0,3.1,0,5.1,0,6l0,5.1
		c0,4.9-1,8.4-3.1,10.7c-2.1,2.2-4.8,3.3-8.3,3.3c-3.9,0-6.9-1.2-9-3.6c-1.9-2.2-2.8-5.4-2.8-9.5V89c0-3.2-0.1-5.5-0.3-6.7h3.9
		c0,1.4,0,3.7,0,6.7l0,9.7c0,3.7,0.7,6.6,2.2,8.7c1.6,2.2,3.9,3.3,6.9,3.3C93,110.7,95.8,106.8,95.8,98.8z"/>
	<path fill="#FFFFFF" d="M113.6,104.2c0,1.5,0.1,3.5,0.3,6.1c2.2,0.3,4.2,0.4,5.9,0.4c3,0,5.6-1.3,7.7-3.8c2.3-2.6,3.5-6,3.5-10
		c0-3.6-0.6-6.3-1.9-8.3c-2-3.1-5.6-4.7-10.8-4.7c-1.6,0-3.2,0.1-4.7,0.4V104.2z M110.1,105.2v-17c0-1.5-0.1-3.4-0.3-5.8
		c3.8-0.1,6.5-0.1,8.1-0.1c5,0,9,1.1,12.1,3.3c3.5,2.6,5.3,6.3,5.3,11.3c0,4.6-1.6,8.4-4.8,11.3c-3.1,2.8-7,4.2-11.5,4.2
		c-1.1,0-2.4-0.1-4-0.2c-1.6-0.1-2.6-0.2-3-0.2h-2.2C110,109.6,110.1,107.4,110.1,105.2z"/>
	<path fill="#FFFFFF" d="M150.1,112h-4c0.2-0.5,0.4-2.9,0.4-7c0.1-5.3,0.1-10.5,0-15.5c-0.1-3.2-0.3-5.6-0.6-7.1h4.1l0,7
		c0-0.2,0,0.8,0,2.9c0,2.1,0,6.4,0,12.8C150.1,109.4,150.1,111.7,150.1,112z"/>
	<path fill="#FFFFFF" d="M177.2,111.5c2.9,0,5.4-1.1,7.3-3.2c2.2-2.4,3.3-5.6,3.3-9.8c0-4.2-0.9-7.7-2.7-10.5c-2.1-3.4-5.2-5-9.2-5
		c-2.8,0-5.1,1-7.1,2.9c-2.4,2.4-3.6,5.8-3.6,10.3c0,3.9,0.9,7.3,2.7,10.2C170.1,109.7,173.2,111.5,177.2,111.5z M176.6,112.7
		c-4.8,0-8.7-1.5-11.7-4.6c-2.8-2.9-4.2-6.4-4.2-10.6c0-4.5,1.5-8.3,4.5-11.3c3-3,6.8-4.5,11.4-4.5c4.9,0,8.8,1.6,11.6,4.7
		c2.6,2.9,3.9,6.4,3.9,10.7c0,4.5-1.5,8.2-4.5,11.2C184.7,111.2,181,112.7,176.6,112.7z"/>
	<path fill="#FFFFFF" d="M245.7,91c0-4.7-2.2-7.1-6.6-7.1c-0.4,0-1.6,0-3.6,0c0,1,0,3.3,0,6.8c0,2.8,0,5.1,0,6.8h3.3
		c1.8,0.1,3.4-0.5,4.7-1.6C244.9,94.7,245.7,93,245.7,91z M235.5,99.2c0,3.5,0,7.7,0,12.7h-3.8c0.3-9.5,0.5-14.6,0.5-15.4
		c0-6.4-0.2-11.1-0.5-14.2c0.4,0,1.8,0,4,0c0.5,0,1.3,0,2.4,0c1.1,0,2,0,2.4,0c2.4,0,4.5,0.8,6.3,2.4c1.8,1.6,2.7,3.5,2.7,5.8
		c0,3-1.1,5.3-3.4,6.8c-1.9,1.3-4.3,1.9-7.1,1.9c-0.4,0-1,0-1.7,0C236.5,99.2,235.9,99.2,235.5,99.2z"/>
	<path fill="#FFFFFF" d="M262.4,112h-4c0.2-0.5,0.4-2.9,0.4-7c0.1-5.3,0.1-10.5,0-15.5c-0.1-3.2-0.3-5.6-0.6-7.1h4.1l0,7
		c0-0.2,0,0.8,0,2.9c0,2.1,0,6.4,0,12.8C262.4,109.4,262.4,111.7,262.4,112z"/>
	<path fill="#FFFFFF" d="M295.7,109.4l-0.9,2.6h-17.1c0-0.4,0.1-2.7,0.2-7c0.1-4.6,0.1-9.8,0-15.5c-0.1-3.9-0.2-6.2-0.4-7.1h4
		c0,0.3,0,1.3,0,3c0,1.7,0,3,0,4c0-0.2,0,0.8,0,2.9c0,2.1,0,6.4,0,12.8c0,2.1,0.1,3.9,0.2,5.2C284.3,110.2,294.2,109.7,295.7,109.4z
		"/>
	<path fill="#FFFFFF" d="M307.1,98.6h8.3l-4-11.8L307.1,98.6z M315.9,100.2h-9.3l-3.2,8.8c-0.4,1.1-0.6,2.1-0.6,3h-2.9
		c3.9-9.2,7.5-18.6,10.7-28.3l2.7-2c1.2,4.3,2.9,9.4,5,15.2c1.9,5,3.8,10,5.6,15h-4.3c0-0.8-0.3-1.9-0.7-3.2L315.9,100.2z"/>
	<path fill="#FFFFFF" d="M335.2,101.5v-7.7c0-3.4,0-6.7-0.1-9.7c-4.6,0-7.8,0.2-9.7,0.6v-2.3c2.1,0,5.9,0,11.5,0c5.8,0,9.7,0,11.8,0
		c0,0.8,0,1.5,0,2.3c-1.4-0.4-4.7-0.6-10-0.6c-0.1,3.1-0.1,6.3-0.1,9.7v7.7c0,1.9,0.1,5.4,0.2,10.5h-4
		C335.1,106.8,335.2,103.3,335.2,101.5z"/>
	<path fill="#FFFFFF" d="M356.6,96.4c0-6.7-0.2-11.4-0.6-14h16.9c0.1,0.6,0.2,1.4,0.3,2.5c-1.3-0.5-4.1-0.8-8.5-0.8
		c-2.6,0-4.1,0-4.6,0v11.5h4.1c2.8,0,4.4-0.1,5.1-0.3v2.4c-0.8-0.2-2.5-0.3-5.1-0.3c-2.2,0-3.6,0-4.1,0l0,12.4
		c1.8,0.2,3.9,0.3,6.3,0.3c3,0,5.6-0.2,7.9-0.6l-0.8,2.5h-15h-2.2C356.5,109.4,356.6,104.2,356.6,96.4z"/>
	<path fill="#FFFFFF" d="M396.7,104.5c0,2.5-0.9,4.5-2.7,5.9c-1.8,1.5-4.1,2.2-7.1,2.2c-2.7,0-5-0.6-7-1.8l1.5-2.3
		c2.2,1.6,4.2,2.3,6.1,2.3c1.9,0,3.4-0.5,4.5-1.4c1-0.9,1.4-2,1.4-3.3c0-2.5-1.3-4.6-3.8-6.3l-4.2-2.8c-3.2-2.1-4.7-4.7-4.7-7.8
		c0-2.2,0.8-3.9,2.4-5.3c1.7-1.5,4-2.2,6.9-2.2c1.9,0,3.8,0.3,5.7,1l-1.3,2.3c-0.1-0.2-0.5-0.5-1.1-0.8c-1.1-0.6-2.5-0.8-4-0.8
		c-1.7,0-3.1,0.5-4.1,1.5c-0.9,0.9-1.3,1.9-1.3,3.1c0,2.1,1.2,4,3.7,5.6l3.5,2.3C394.8,98.2,396.7,101.1,396.7,104.5z"/>
</g>
<path fill="#FFFFFF" d="M317.6,0c-30.3,0-54.8,10.5-74.9,32c-17.7,19-29.4,43.8-38.8,63.8c-19.6,41.8-42.6,82.6-86.6,93.1
	c-1.3,0.3-2.6,0.6-3.9,0.8c-0.7,0.1-1.4,0.3-2.1,0.4c-2.4,0.4-4.8,0.7-7.2,0.9c-0.5,0-1,0.1-1.5,0.1c-2.6,0.2-5.2,0.3-7.8,0.3
	c-24.4,0-46.3-8.2-63.2-23.7C16.9,154.5,6.4,136.2,2,116.3l-2,0.4c4.6,20.3,15.3,39,30.2,52.6c17.3,15.8,39.7,24.2,64.6,24.2
	c2.7,0,5.4-0.1,8-0.3c0.4,0,0.8-0.1,1.2-0.1c2.4-0.2,4.7-0.5,7-0.9c0.9-0.1,1.9-0.3,2.8-0.5c0.9-0.2,1.7-0.4,2.6-0.5
	c38-8,70.2-37.6,95.9-88.3c2.5-5,5-10.4,7.7-16C237.6,49,259.6,2,317.6,2c52.2,0,85.8,40.6,92,80.8l2-0.3
	C405.2,41.5,370.9,0,317.6,0z"/>
</svg>
